<mxfile host="app.diagrams.net" agent="Mozilla/5.0 (Windows NT 10.0; Win64; x64) AppleWebKit/537.36 (KHTML, like Gecko) Chrome/128.0.0.0 Safari/537.36" version="24.7.14">
  <diagram name="Page-1" id="-Bo5jUMNLsSaACte4ctX">
    <mxGraphModel dx="1114" dy="592" grid="1" gridSize="10" guides="1" tooltips="1" connect="1" arrows="1" fold="1" page="1" pageScale="1" pageWidth="850" pageHeight="1100" math="0" shadow="0">
      <root>
        <mxCell id="0" />
        <mxCell id="1" parent="0" />
        <mxCell id="nIF4mrifkI2eIaLWwSJw-3" value="" style="edgeStyle=orthogonalEdgeStyle;rounded=0;orthogonalLoop=1;jettySize=auto;html=1;" edge="1" parent="1" source="nIF4mrifkI2eIaLWwSJw-1" target="nIF4mrifkI2eIaLWwSJw-2">
          <mxGeometry relative="1" as="geometry" />
        </mxCell>
        <mxCell id="nIF4mrifkI2eIaLWwSJw-1" value="" style="whiteSpace=wrap;html=1;aspect=fixed;" vertex="1" parent="1">
          <mxGeometry x="220" y="250" width="210" height="210" as="geometry" />
        </mxCell>
        <mxCell id="nIF4mrifkI2eIaLWwSJw-5" value="" style="edgeStyle=orthogonalEdgeStyle;rounded=0;orthogonalLoop=1;jettySize=auto;html=1;" edge="1" parent="1" source="nIF4mrifkI2eIaLWwSJw-2" target="nIF4mrifkI2eIaLWwSJw-4">
          <mxGeometry relative="1" as="geometry" />
        </mxCell>
        <mxCell id="nIF4mrifkI2eIaLWwSJw-2" value="" style="shape=singleArrow;whiteSpace=wrap;html=1;arrowWidth=0.4;arrowSize=0.4;" vertex="1" parent="1">
          <mxGeometry x="575" y="325" width="80" height="60" as="geometry" />
        </mxCell>
        <mxCell id="nIF4mrifkI2eIaLWwSJw-7" value="" style="edgeStyle=orthogonalEdgeStyle;rounded=0;orthogonalLoop=1;jettySize=auto;html=1;" edge="1" parent="1" source="nIF4mrifkI2eIaLWwSJw-4" target="nIF4mrifkI2eIaLWwSJw-6">
          <mxGeometry relative="1" as="geometry" />
        </mxCell>
        <mxCell id="nIF4mrifkI2eIaLWwSJw-4" value="" style="shape=tape;whiteSpace=wrap;html=1;" vertex="1" parent="1">
          <mxGeometry x="555" y="445" width="120" height="100" as="geometry" />
        </mxCell>
        <mxCell id="nIF4mrifkI2eIaLWwSJw-6" value="" style="ellipse;whiteSpace=wrap;html=1;" vertex="1" parent="1">
          <mxGeometry x="775" y="455" width="80" height="80" as="geometry" />
        </mxCell>
      </root>
    </mxGraphModel>
  </diagram>
</mxfile>
